<svg width="471" height="93" viewBox="0 0 471 93" fill="none" xmlns="http://www.w3.org/2000/svg">
<path d="M5.56641 42.7969H3.125L2.36328 32.9531H6.36719L5.56641 42.7969ZM11.1523 42.7969H8.71094L7.96875 32.9531H11.9531L11.1523 42.7969ZM50.625 52.9922C50.625 54.112 50.4102 55.1602 49.9805 56.1367C49.5638 57.1003 48.9909 57.9466 48.2617 58.6758C47.5456 59.3919 46.6992 59.9583 45.7227 60.375C44.7461 60.7917 43.7109 61 42.6172 61H23.6523V56.9961H42.6172C43.1641 56.9961 43.6784 56.8919 44.1602 56.6836C44.6549 56.4753 45.0846 56.1888 45.4492 55.8242C45.8138 55.4596 46.1003 55.0365 46.3086 54.5547C46.5169 54.0599 46.6211 53.5391 46.6211 52.9922C46.6211 52.4453 46.5169 51.931 46.3086 51.4492C46.1003 50.9674 45.8138 50.5443 45.4492 50.1797C45.0846 49.8151 44.6549 49.5286 44.1602 49.3203C43.6784 49.112 43.1641 49.0078 42.6172 49.0078H23.6523V45.0039H38.6133C39.1602 45.0039 39.6745 44.8997 40.1562 44.6914C40.651 44.4831 41.0807 44.1966 41.4453 43.832C41.8099 43.4674 42.0964 43.0443 42.3047 42.5625C42.513 42.0677 42.6172 41.5469 42.6172 41C42.6172 40.4531 42.513 39.9388 42.3047 39.457C42.0964 38.9622 41.8099 38.5326 41.4453 38.168C41.0807 37.8034 40.651 37.5169 40.1562 37.3086C39.6745 37.1003 39.1602 36.9961 38.6133 36.9961H21.6602V61H17.6562V32.9922H38.6133C39.707 32.9922 40.7422 33.207 41.7188 33.6367C42.6953 34.0534 43.5417 34.6263 44.2578 35.3555C44.987 36.0716 45.5599 36.918 45.9766 37.8945C46.4062 38.8711 46.6211 39.9062 46.6211 41C46.6211 41.8464 46.4974 42.6471 46.25 43.4023C46.0026 44.1445 45.6706 44.8346 45.2539 45.4727C46.0352 45.7461 46.7513 46.1302 47.4023 46.625C48.0664 47.1198 48.6328 47.6927 49.1016 48.3438C49.5833 48.9948 49.9544 49.7174 50.2148 50.5117C50.4883 51.293 50.625 52.1198 50.625 52.9922ZM75.8789 61H54.8242V39.0078H58.8281V56.9961H75.8789V61ZM105.02 49.9648C105.02 51.4883 104.779 52.9206 104.297 54.2617C103.815 55.5898 103.125 56.7552 102.227 57.7578C101.341 58.7604 100.273 59.5547 99.0234 60.1406C97.7865 60.7135 96.4062 61 94.8828 61H87.9297C86.4062 61 85.0195 60.7135 83.7695 60.1406C82.5195 59.5547 81.4453 58.7604 80.5469 57.7578C79.6615 56.7552 78.9779 55.5898 78.4961 54.2617C78.0143 52.9206 77.7734 51.4883 77.7734 49.9648C77.7734 48.4544 78.0143 47.0352 78.4961 45.707C78.9779 44.3789 79.6615 43.2201 80.5469 42.2305C81.4453 41.2279 82.5195 40.4401 83.7695 39.8672C85.0195 39.2943 86.4062 39.0078 87.9297 39.0078H94.8828C96.4062 39.0078 97.7865 39.2943 99.0234 39.8672C100.273 40.4401 101.341 41.2279 102.227 42.2305C103.125 43.2201 103.815 44.3789 104.297 45.707C104.779 47.0352 105.02 48.4544 105.02 49.9648ZM101.016 49.9648C101.016 49.0013 100.872 48.0964 100.586 47.25C100.312 46.3906 99.9089 45.6484 99.375 45.0234C98.8542 44.3854 98.2161 43.8841 97.4609 43.5195C96.7057 43.1419 95.8464 42.9531 94.8828 42.9531H87.9297C86.9661 42.9531 86.1003 43.1419 85.332 43.5195C84.5768 43.8841 83.9323 44.3854 83.3984 45.0234C82.8776 45.6484 82.474 46.3906 82.1875 47.25C81.9141 48.0964 81.7773 49.0013 81.7773 49.9648C81.7773 50.9284 81.9141 51.8398 82.1875 52.6992C82.474 53.5456 82.8776 54.2878 83.3984 54.9258C83.9323 55.5638 84.5768 56.0716 85.332 56.4492C86.1003 56.8138 86.9661 56.9961 87.9297 56.9961H94.8828C95.8464 56.9961 96.7057 56.8138 97.4609 56.4492C98.2161 56.0716 98.8542 55.5638 99.375 54.9258C99.9089 54.2878 100.312 53.5456 100.586 52.6992C100.872 51.8398 101.016 50.9284 101.016 49.9648ZM133.555 54.5156C133.555 55.4141 133.385 56.2604 133.047 57.0547C132.708 57.8359 132.246 58.5195 131.66 59.1055C131.087 59.6914 130.404 60.1536 129.609 60.4922C128.828 60.8307 127.988 61 127.09 61H108.398V56.9961H127.09C127.441 56.9961 127.767 56.9375 128.066 56.8203C128.379 56.6901 128.646 56.5143 128.867 56.293C129.102 56.0586 129.284 55.7917 129.414 55.4922C129.544 55.1927 129.609 54.8672 129.609 54.5156C129.609 54.1641 129.544 53.8385 129.414 53.5391C129.284 53.2266 129.102 52.9596 128.867 52.7383C128.646 52.5039 128.379 52.3216 128.066 52.1914C127.767 52.0612 127.441 51.9961 127.09 51.9961H114.844C113.958 51.9961 113.125 51.8268 112.344 51.4883C111.562 51.1497 110.879 50.6875 110.293 50.1016C109.707 49.5026 109.245 48.806 108.906 48.0117C108.568 47.2174 108.398 46.3711 108.398 45.4727C108.398 44.6003 108.568 43.7734 108.906 42.9922C109.245 42.1979 109.707 41.5078 110.293 40.9219C110.879 40.3359 111.562 39.8737 112.344 39.5352C113.125 39.1836 113.958 39.0078 114.844 39.0078H132.09V42.9531H114.844C114.505 42.9531 114.18 43.0247 113.867 43.168C113.568 43.2982 113.307 43.4805 113.086 43.7148C112.865 43.9362 112.689 44.2031 112.559 44.5156C112.428 44.8151 112.363 45.1341 112.363 45.4727C112.363 45.8242 112.428 46.1562 112.559 46.4688C112.689 46.7682 112.865 47.0352 113.086 47.2695C113.307 47.4909 113.568 47.6667 113.867 47.7969C114.18 47.9271 114.505 47.9922 114.844 47.9922H127.09C127.988 47.9922 128.828 48.168 129.609 48.5195C130.404 48.8581 131.087 49.3268 131.66 49.9258C132.246 50.5117 132.708 51.2018 133.047 51.9961C133.385 52.7904 133.555 53.6302 133.555 54.5156ZM161.836 54.5156C161.836 55.4141 161.667 56.2604 161.328 57.0547C160.99 57.8359 160.527 58.5195 159.941 59.1055C159.368 59.6914 158.685 60.1536 157.891 60.4922C157.109 60.8307 156.27 61 155.371 61H136.68V56.9961H155.371C155.723 56.9961 156.048 56.9375 156.348 56.8203C156.66 56.6901 156.927 56.5143 157.148 56.293C157.383 56.0586 157.565 55.7917 157.695 55.4922C157.826 55.1927 157.891 54.8672 157.891 54.5156C157.891 54.1641 157.826 53.8385 157.695 53.5391C157.565 53.2266 157.383 52.9596 157.148 52.7383C156.927 52.5039 156.66 52.3216 156.348 52.1914C156.048 52.0612 155.723 51.9961 155.371 51.9961H143.125C142.24 51.9961 141.406 51.8268 140.625 51.4883C139.844 51.1497 139.16 50.6875 138.574 50.1016C137.988 49.5026 137.526 48.806 137.188 48.0117C136.849 47.2174 136.68 46.3711 136.68 45.4727C136.68 44.6003 136.849 43.7734 137.188 42.9922C137.526 42.1979 137.988 41.5078 138.574 40.9219C139.16 40.3359 139.844 39.8737 140.625 39.5352C141.406 39.1836 142.24 39.0078 143.125 39.0078H160.371V42.9531H143.125C142.786 42.9531 142.461 43.0247 142.148 43.168C141.849 43.2982 141.589 43.4805 141.367 43.7148C141.146 43.9362 140.97 44.2031 140.84 44.5156C140.71 44.8151 140.645 45.1341 140.645 45.4727C140.645 45.8242 140.71 46.1562 140.84 46.4688C140.97 46.7682 141.146 47.0352 141.367 47.2695C141.589 47.4909 141.849 47.6667 142.148 47.7969C142.461 47.9271 142.786 47.9922 143.125 47.9922H155.371C156.27 47.9922 157.109 48.168 157.891 48.5195C158.685 48.8581 159.368 49.3268 159.941 49.9258C160.527 50.5117 160.99 51.2018 161.328 51.9961C161.667 52.7904 161.836 53.6302 161.836 54.5156ZM191.934 49.9648C191.934 51.4883 191.693 52.9206 191.211 54.2617C190.729 55.5898 190.039 56.7552 189.141 57.7578C188.255 58.7604 187.188 59.5547 185.938 60.1406C184.701 60.7135 183.32 61 181.797 61H174.844C173.32 61 171.934 60.7135 170.684 60.1406C169.434 59.5547 168.359 58.7604 167.461 57.7578C166.576 56.7552 165.892 55.5898 165.41 54.2617C164.928 52.9206 164.688 51.4883 164.688 49.9648C164.688 48.4544 164.928 47.0352 165.41 45.707C165.892 44.3789 166.576 43.2201 167.461 42.2305C168.359 41.2279 169.434 40.4401 170.684 39.8672C171.934 39.2943 173.32 39.0078 174.844 39.0078H181.797C183.32 39.0078 184.701 39.2943 185.938 39.8672C187.188 40.4401 188.255 41.2279 189.141 42.2305C190.039 43.2201 190.729 44.3789 191.211 45.707C191.693 47.0352 191.934 48.4544 191.934 49.9648ZM187.93 49.9648C187.93 49.0013 187.786 48.0964 187.5 47.25C187.227 46.3906 186.823 45.6484 186.289 45.0234C185.768 44.3854 185.13 43.8841 184.375 43.5195C183.62 43.1419 182.76 42.9531 181.797 42.9531H174.844C173.88 42.9531 173.014 43.1419 172.246 43.5195C171.491 43.8841 170.846 44.3854 170.312 45.0234C169.792 45.6484 169.388 46.3906 169.102 47.25C168.828 48.0964 168.691 49.0013 168.691 49.9648C168.691 50.9284 168.828 51.8398 169.102 52.6992C169.388 53.5456 169.792 54.2878 170.312 54.9258C170.846 55.5638 171.491 56.0716 172.246 56.4492C173.014 56.8138 173.88 56.9961 174.844 56.9961H181.797C182.76 56.9961 183.62 56.8138 184.375 56.4492C185.13 56.0716 185.768 55.5638 186.289 54.9258C186.823 54.2878 187.227 53.5456 187.5 52.6992C187.786 51.8398 187.93 50.9284 187.93 49.9648ZM212.48 61H208.477V49.9258C208.477 48.9622 208.294 48.0573 207.93 47.2109C207.565 46.3646 207.064 45.6289 206.426 45.0039C205.801 44.3659 205.059 43.8646 204.199 43.5C203.353 43.1354 202.448 42.9531 201.484 42.9531H200.352V61H196.348V39.0078H201.484C202.422 39.0078 203.327 39.125 204.199 39.3594C205.072 39.5807 205.892 39.8997 206.66 40.3164C207.441 40.7201 208.158 41.2148 208.809 41.8008C209.473 42.3867 210.052 43.0378 210.547 43.7539C211.055 43.0378 211.628 42.3867 212.266 41.8008C212.917 41.2148 213.62 40.7201 214.375 40.3164C215.13 39.8997 215.931 39.5807 216.777 39.3594C217.624 39.125 218.509 39.0078 219.434 39.0078H224.551V61H220.547V42.9531H219.434C218.47 42.9531 217.565 43.1484 216.719 43.5391C215.885 43.9297 215.15 44.4635 214.512 45.1406C213.887 45.8177 213.392 46.612 213.027 47.5234C212.663 48.4349 212.48 49.4049 212.48 50.4336V61ZM276.738 52.9922C276.738 54.112 276.53 55.1602 276.113 56.1367C275.697 57.1003 275.124 57.9466 274.395 58.6758C273.678 59.3919 272.832 59.9583 271.855 60.375C270.892 60.7917 269.857 61 268.75 61H244.414V56.9961H268.75C269.31 56.9961 269.831 56.8919 270.312 56.6836C270.794 56.4753 271.211 56.1888 271.562 55.8242C271.927 55.4596 272.214 55.0365 272.422 54.5547C272.63 54.0599 272.734 53.5391 272.734 52.9922C272.734 52.4453 272.63 51.931 272.422 51.4492C272.214 50.9674 271.927 50.5443 271.562 50.1797C271.211 49.8151 270.794 49.5286 270.312 49.3203C269.831 49.112 269.31 49.0078 268.75 49.0078H252.422C251.328 49.0078 250.293 48.7995 249.316 48.3828C248.34 47.9661 247.487 47.3997 246.758 46.6836C246.042 45.9544 245.469 45.1016 245.039 44.125C244.622 43.1484 244.414 42.1068 244.414 41C244.414 39.9062 244.622 38.8711 245.039 37.8945C245.469 36.918 246.042 36.0716 246.758 35.3555C247.487 34.6263 248.34 34.0534 249.316 33.6367C250.293 33.207 251.328 32.9922 252.422 32.9922H274.746V36.9961H252.422C251.875 36.9961 251.354 37.1003 250.859 37.3086C250.378 37.5169 249.954 37.8034 249.59 38.168C249.225 38.5326 248.939 38.9622 248.73 39.457C248.522 39.9388 248.418 40.4531 248.418 41C248.418 41.5469 248.522 42.0677 248.73 42.5625C248.939 43.0443 249.225 43.4674 249.59 43.832C249.954 44.1966 250.378 44.4831 250.859 44.6914C251.354 44.8997 251.875 45.0039 252.422 45.0039H268.75C269.857 45.0039 270.892 45.2188 271.855 45.6484C272.832 46.0651 273.678 46.638 274.395 47.3672C275.124 48.0833 275.697 48.9297 276.113 49.9062C276.53 50.8698 276.738 51.8984 276.738 52.9922ZM304.082 61H300.078V52.0352H286.855V48.0312H300.078V39.0078H304.082V61ZM284.961 61H280.957V39.0078H284.961V61ZM335.801 49.9648C335.801 51.4883 335.56 52.9206 335.078 54.2617C334.596 55.5898 333.906 56.7552 333.008 57.7578C332.122 58.7604 331.055 59.5547 329.805 60.1406C328.568 60.7135 327.188 61 325.664 61H318.711C317.188 61 315.801 60.7135 314.551 60.1406C313.301 59.5547 312.227 58.7604 311.328 57.7578C310.443 56.7552 309.759 55.5898 309.277 54.2617C308.796 52.9206 308.555 51.4883 308.555 49.9648C308.555 48.4544 308.796 47.0352 309.277 45.707C309.759 44.3789 310.443 43.2201 311.328 42.2305C312.227 41.2279 313.301 40.4401 314.551 39.8672C315.801 39.2943 317.188 39.0078 318.711 39.0078H325.664C327.188 39.0078 328.568 39.2943 329.805 39.8672C331.055 40.4401 332.122 41.2279 333.008 42.2305C333.906 43.2201 334.596 44.3789 335.078 45.707C335.56 47.0352 335.801 48.4544 335.801 49.9648ZM331.797 49.9648C331.797 49.0013 331.654 48.0964 331.367 47.25C331.094 46.3906 330.69 45.6484 330.156 45.0234C329.635 44.3854 328.997 43.8841 328.242 43.5195C327.487 43.1419 326.628 42.9531 325.664 42.9531H318.711C317.747 42.9531 316.882 43.1419 316.113 43.5195C315.358 43.8841 314.714 44.3854 314.18 45.0234C313.659 45.6484 313.255 46.3906 312.969 47.25C312.695 48.0964 312.559 49.0013 312.559 49.9648C312.559 50.9284 312.695 51.8398 312.969 52.6992C313.255 53.5456 313.659 54.2878 314.18 54.9258C314.714 55.5638 315.358 56.0716 316.113 56.4492C316.882 56.8138 317.747 56.9961 318.711 56.9961H325.664C326.628 56.9961 327.487 56.8138 328.242 56.4492C328.997 56.0716 329.635 55.5638 330.156 54.9258C330.69 54.2878 331.094 53.5456 331.367 52.6992C331.654 51.8398 331.797 50.9284 331.797 49.9648ZM365.391 46.9961C365.391 48.0898 365.176 49.125 364.746 50.1016C364.329 51.0651 363.757 51.918 363.027 52.6602C362.311 53.3893 361.465 53.9688 360.488 54.3984C359.512 54.8281 358.477 55.043 357.383 55.043H346.27V51.0781H357.383C357.943 51.0781 358.47 50.9674 358.965 50.7461C359.46 50.5247 359.889 50.2318 360.254 49.8672C360.618 49.4896 360.905 49.0534 361.113 48.5586C361.322 48.0638 361.426 47.543 361.426 46.9961C361.426 46.4362 361.322 45.9154 361.113 45.4336C360.905 44.9388 360.618 44.5091 360.254 44.1445C359.889 43.7799 359.46 43.4935 358.965 43.2852C358.47 43.0638 357.943 42.9531 357.383 42.9531H344.18V61H340.215V39.0078H357.383C358.477 39.0078 359.512 39.2227 360.488 39.6523C361.465 40.069 362.311 40.6419 363.027 41.3711C363.757 42.0872 364.329 42.9336 364.746 43.9102C365.176 44.8737 365.391 45.9023 365.391 46.9961ZM371.777 42.7969H369.336L368.574 32.9531H372.578L371.777 42.7969ZM377.363 42.7969H374.922L374.18 32.9531H378.164L377.363 42.7969Z" fill="black"/>
<path d="M405.613 28.0826L405.767 27.943L405.777 27.7419C405.808 27.1355 405.783 26.3342 405.757 25.4749C405.747 25.1745 405.738 24.867 405.73 24.5583C405.701 23.3431 405.702 22.0809 405.855 21.0088C406.012 19.9045 406.313 19.1472 406.755 18.7913C407.123 18.4948 407.764 18.3572 409.005 18.9828C410.226 19.5982 411.953 21.1481 413.737 23.2511C415.508 25.3395 417.291 27.9225 418.636 30.5487C419.985 33.1841 420.869 35.8183 420.893 38.0199C420.906 39.1153 420.704 40.0814 420.263 40.885C419.826 41.682 419.138 42.3473 418.122 42.8286L418.064 42.8558L418.015 42.8957C417.107 43.633 416.411 44.1577 415.844 44.5101C415.274 44.8637 414.873 45.0184 414.551 45.0586C413.94 45.1351 413.43 44.8276 412.302 43.9464C412.214 43.878 412.124 43.8072 412.031 43.7341C409.803 41.9847 405.904 38.9246 396.258 36.012C395.754 34.4024 395.862 33.377 396.243 32.6789C396.647 31.94 397.425 31.4418 398.497 31.0239C399.029 30.8169 399.611 30.6376 400.226 30.4574C400.371 30.4151 400.518 30.3726 400.666 30.3297C401.141 30.1921 401.632 30.0502 402.111 29.8953C403.366 29.4898 404.641 28.9678 405.613 28.0826Z" stroke="black"/>
<path d="M422.696 16.0392L422.907 16.0128L423.032 15.8475C423.434 15.3145 424.154 14.7817 425.085 14.3663C426.01 13.9538 427.107 13.673 428.229 13.6178C430.464 13.5078 432.732 14.2869 434.01 16.6422C434.658 17.835 435.15 20.0381 435.354 22.7054C435.557 25.3532 435.471 28.3905 435.007 31.2116C434.542 34.0425 433.705 36.6069 432.44 38.3475C431.191 40.0651 429.565 40.9424 427.442 40.5634L427.372 40.5511L427.303 40.5572C425.83 40.6871 424.734 40.7806 423.906 40.8145C423.065 40.8488 422.563 40.8176 422.248 40.73C422.101 40.689 422.014 40.6402 421.957 40.5937C421.901 40.5485 421.851 40.4868 421.805 40.3877C421.698 40.1608 421.64 39.8219 421.563 39.2411C421.557 39.1931 421.55 39.1439 421.544 39.0937C421.395 37.9675 421.175 36.2927 420.222 33.9176C419.245 31.4818 417.506 28.3261 414.308 24.2546C415.269 20.8044 416.284 18.9226 417.539 17.8206C418.81 16.7044 420.396 16.3264 422.696 16.0392Z" stroke="black"/>
<path d="M390.435 47.1315L390.467 46.8832L390.283 46.7058C389.369 45.8237 388.637 44.1142 388.819 42.4695C388.908 41.6602 389.218 40.8749 389.829 40.207C390.441 39.5384 391.38 38.9617 392.77 38.6116C394.129 38.2693 396.387 38.3534 399.05 38.7845C401.692 39.2123 404.662 39.9697 407.408 40.9205C410.16 41.8733 412.654 43.0099 414.362 44.1842C415.217 44.7727 415.845 45.3503 416.214 45.8934C416.579 46.4286 416.668 46.8881 416.545 47.2984C416.271 48.2113 416.064 48.893 415.87 49.4171C415.676 49.9431 415.508 50.27 415.33 50.4922C415.007 50.8949 414.589 51.0382 413.415 51.2284C413.24 51.2567 413.052 51.2857 412.851 51.3168C410.383 51.6988 405.837 52.4022 396.761 56.1367C393.51 54.7474 391.847 53.4154 391.029 52.0351C390.2 50.6374 390.179 49.0933 390.435 47.1315Z" stroke="black"/>
<path d="M426.28 76.21L426.088 76.2261L425.959 76.363C425.626 76.7171 425.207 77.2023 424.739 77.7444C424.396 78.1423 424.026 78.5708 423.644 79.0006C422.725 80.0359 421.704 81.115 420.689 81.95C419.656 82.801 418.712 83.3277 417.943 83.3854C417.582 83.4126 417.265 83.3354 416.976 83.1352C416.679 82.9285 416.374 82.5637 416.098 81.9538C415.544 80.7247 415.205 78.432 415.191 75.655C415.178 72.8989 415.485 69.7361 416.173 66.8052C416.863 63.8655 417.926 61.2051 419.393 59.4152C420.845 57.6445 422.653 56.7607 424.914 57.2226L424.986 57.2373L425.059 57.2316C426.501 57.1193 427.585 57.0372 428.412 57.0113C429.25 56.985 429.768 57.0196 430.103 57.1124C430.397 57.1936 430.523 57.3097 430.618 57.4875C430.74 57.7158 430.817 58.0601 430.91 58.6421C430.928 58.7582 430.947 58.8807 430.967 59.01C431.141 60.1411 431.393 61.7838 432.228 64.0683C433.142 66.5666 434.749 69.8203 437.699 74.0433C437.003 75.6632 436.283 76.547 435.571 77.009C434.842 77.4817 434.054 77.5557 433.138 77.4243C432.473 77.329 431.793 77.1367 431.044 76.9247C430.719 76.8329 430.382 76.7374 430.027 76.6446C428.886 76.346 427.628 76.0965 426.28 76.21Z" stroke="black"/>
<path d="M451.312 68.1756L451.194 68.3453L451.229 68.5453C451.456 69.8506 450.983 71.9021 449.813 73.4575C449.236 74.2254 448.505 74.8496 447.634 75.206C446.768 75.56 445.734 75.6629 444.518 75.3437C443.297 75.0233 441.448 73.9979 439.444 72.5065C437.455 71.0252 435.363 69.121 433.656 67.0936C431.942 65.0579 430.651 62.9379 430.206 61.0256C429.986 60.0755 429.979 59.1967 430.214 58.4102C430.447 57.6297 430.927 56.9078 431.738 56.2762L431.792 56.2338L431.833 56.179C431.971 55.9951 432.104 55.8189 432.23 55.6501C432.874 54.7921 433.374 54.1248 433.783 53.6119C434.281 52.9883 434.606 52.6417 434.851 52.4646C434.966 52.3814 435.042 52.3521 435.09 52.3416C435.133 52.3323 435.179 52.3319 435.249 52.3521C435.426 52.4037 435.653 52.5519 436.075 52.8588C436.109 52.8838 436.144 52.9093 436.18 52.9355C436.99 53.5264 438.222 54.4246 440.405 55.2719C442.639 56.1387 445.85 56.9463 450.619 57.346C452.365 60.2571 453.096 62.1018 453.145 63.6121C453.194 65.1248 452.56 66.3839 451.312 68.1756Z" stroke="black"/>
<path d="M465.347 43.4127L465.372 43.6213L465.543 43.7526C466.045 44.1374 466.437 44.8793 466.622 45.907C466.805 46.9209 466.772 48.1442 466.493 49.3948C465.933 51.9063 464.413 54.4147 461.856 55.5597C460.57 56.1358 458.169 56.599 455.269 56.8102C452.387 57.0202 449.074 56.977 445.996 56.574C442.906 56.1695 440.109 55.4092 438.219 54.2222C437.28 53.632 436.588 52.9512 436.182 52.1784C435.781 51.4134 435.64 50.5222 435.861 49.469L435.863 49.4577L435.865 49.4463C435.891 49.2804 435.916 49.1216 435.94 48.9695C436.065 48.1806 436.162 47.5716 436.257 47.0885C436.371 46.507 436.475 46.1586 436.596 45.9279C436.794 45.55 437.043 45.4408 438.065 45.166C438.102 45.156 438.139 45.1459 438.178 45.1356C440.233 44.5843 444.289 43.4962 452.92 37.6856C457.123 37.7215 460.117 38.1241 462.117 39.0287C463.119 39.4815 463.856 40.0539 464.376 40.7591C464.897 41.4649 465.221 42.3341 465.347 43.4127Z" stroke="black"/>
<path d="M446.385 27.7957L446.545 27.939L446.765 27.9199C447.22 27.8803 447.782 27.8128 448.414 27.737C450.258 27.5155 452.687 27.2239 454.724 27.3554C456.101 27.4444 457.15 27.7233 457.71 28.2329C457.973 28.4723 458.134 28.7681 458.172 29.1546C458.212 29.5535 458.123 30.0807 457.819 30.7714C457.203 32.1657 455.637 34.2383 453.51 36.4483C451.394 38.6464 448.765 40.9375 446.07 42.7726C443.364 44.6149 440.639 45.9652 438.325 46.3386C437.174 46.5242 436.152 46.464 435.289 46.1279C434.433 45.7949 433.695 45.1761 433.128 44.174L433.12 44.1594L433.111 44.1454C432.647 43.4454 432.236 42.8393 431.888 42.3249C431.661 41.9906 431.461 41.6949 431.29 41.4373C430.838 40.7597 430.565 40.3169 430.42 39.982C430.282 39.6656 430.282 39.4991 430.322 39.3554C430.373 39.1722 430.505 38.9574 430.795 38.5598C430.848 38.4879 430.904 38.4123 430.963 38.3323C431.541 37.5492 432.427 36.3485 433.483 34.1518C434.632 31.762 435.977 28.2026 437.368 22.7088C438.727 21.6085 439.833 20.8125 440.734 20.2646C441.67 19.6954 442.354 19.4128 442.849 19.3187C443.327 19.228 443.591 19.317 443.765 19.4555C443.964 19.6133 444.131 19.9023 444.264 20.3675C444.395 20.8267 444.473 21.3908 444.544 22.0326C444.563 22.2052 444.581 22.3837 444.6 22.5661C444.65 23.0471 444.702 23.5548 444.774 24.0513C444.973 25.407 445.341 26.8614 446.385 27.7957Z" stroke="black"/>
<path d="M400.802 69.6865L400.657 69.5334L400.439 69.5323C399.083 69.5256 397.01 68.8805 395.613 67.6787C394.922 67.0846 394.421 66.3765 394.232 65.5701C394.044 64.7721 394.148 63.8263 394.76 62.7214C395.374 61.6112 396.888 59.9888 398.926 58.2815C400.949 56.5863 403.438 54.8491 405.952 53.5008C408.475 52.1469 410.975 51.2115 413.03 51.068C414.052 50.9967 414.937 51.123 415.657 51.4658C416.369 51.8047 416.954 52.3708 417.36 53.2432L417.389 53.305L417.434 53.3564C417.794 53.7655 418.119 54.1313 418.412 54.4611C418.833 54.9348 419.188 55.3344 419.487 55.6815C419.997 56.2746 420.302 56.6711 420.464 56.9736C420.616 57.2565 420.612 57.3991 420.577 57.5152C420.527 57.6769 420.389 57.8802 420.07 58.2443C419.972 58.3567 419.861 58.4787 419.74 58.6126C419.103 59.3171 418.166 60.3537 417.064 62.0759C415.776 64.0897 414.264 67.0352 412.692 71.5168C409.459 72.664 407.183 72.8986 405.402 72.5358C403.588 72.1664 402.207 71.1619 400.802 69.6865Z" stroke="black"/>
<ellipse cx="425.5" cy="48" rx="10.5" ry="10" fill="black"/>
<path d="M424.827 46.1801L425.044 46.3893L425.209 46.1366C425.813 45.212 426.517 44.7426 427.221 44.5726C427.928 44.4017 428.665 44.5265 429.343 44.8459C430.021 45.1656 430.627 45.6751 431.063 46.2509C431.5 46.8294 431.75 47.4537 431.75 47.9999C431.75 49.129 431.029 50.3127 429.801 51.2257C428.577 52.1345 426.88 52.7499 425 52.7499C423.12 52.7499 421.423 52.1345 420.199 51.2257C418.971 50.3127 418.25 49.129 418.25 47.9999C418.25 46.8469 418.95 45.4672 420.108 44.8396C420.679 44.5296 421.367 44.3998 422.152 44.5737C422.94 44.7484 423.842 45.2333 424.827 46.1801Z" stroke="#DFE6ED" stroke-width="0.5"/>
</svg>
